<?xml version="1.0" encoding="iso-8859-1"?>
<!-- Uploaded to: SVG Repo, www.svgrepo.com, Generator: SVG Repo Mixer Tools -->
<svg fill="#000000" height="800px" width="800px" version="1.1" id="Layer_1" xmlns="http://www.w3.org/2000/svg" xmlns:xlink="http://www.w3.org/1999/xlink" 
	 viewBox="0 0 512 512" xml:space="preserve">
<g>
	<g>
		<path d="M346.222,15.522c-0.18-0.89-0.444-1.764-0.791-2.596c-0.347-0.847-0.777-1.652-1.277-2.401
			c-0.5-0.763-1.083-1.471-1.721-2.11c-0.638-0.638-1.36-1.221-2.11-1.721c-0.75-0.498-1.568-0.93-2.401-1.277
			c-0.833-0.347-1.707-0.625-2.596-0.791c-4.511-0.915-9.3,0.569-12.52,3.789c-0.652,0.639-1.221,1.346-1.735,2.11
			c-0.5,0.75-0.93,1.555-1.277,2.401c-0.347,0.833-0.611,1.706-0.791,2.596c-0.18,0.888-0.264,1.805-0.264,2.707
			c0,0.901,0.083,1.818,0.264,2.721c0.18,0.873,0.444,1.748,0.791,2.594c0.347,0.833,0.777,1.638,1.277,2.387
			c0.514,0.763,1.083,1.471,1.735,2.11c2.582,2.582,6.149,4.068,9.813,4.068c3.651,0,7.218-1.485,9.813-4.068
			c2.582-2.58,4.067-6.161,4.067-9.812C346.5,17.326,346.403,16.409,346.222,15.522z"/>
	</g>
</g>
<g>
	<g>
		<path d="M192.997,15.52c-0.18-0.89-0.444-1.764-0.791-2.596c-0.347-0.847-0.777-1.652-1.277-2.401
			c-0.514-0.763-1.083-1.471-1.721-2.11c-0.652-0.638-1.36-1.221-2.124-1.721c-0.75-0.498-1.555-0.93-2.387-1.277
			c-0.833-0.347-1.707-0.625-2.596-0.791c-1.791-0.361-3.637-0.361-5.427,0c-0.888,0.167-1.763,0.444-2.596,0.791
			c-0.833,0.347-1.638,0.779-2.401,1.277c-0.75,0.5-1.471,1.083-2.11,1.721s-1.221,1.346-1.721,2.11
			c-0.5,0.75-0.93,1.555-1.277,2.401c-0.347,0.833-0.611,1.706-0.791,2.596c-0.18,0.888-0.278,1.804-0.278,2.707
			c0,0.901,0.097,1.818,0.278,2.721c0.18,0.875,0.444,1.749,0.791,2.596c0.347,0.833,0.777,1.638,1.277,2.387
			c0.5,0.763,1.083,1.471,1.721,2.11c0.638,0.638,1.36,1.221,2.11,1.735c0.763,0.5,1.568,0.93,2.401,1.277
			c0.833,0.347,1.707,0.611,2.596,0.791c0.902,0.18,1.804,0.264,2.707,0.264c0.916,0,1.818-0.085,2.721-0.264
			c0.888-0.18,1.763-0.444,2.596-0.791c0.833-0.347,1.638-0.777,2.387-1.277c0.763-0.514,1.471-1.097,2.124-1.735
			c0.638-0.638,1.208-1.346,1.721-2.11c0.5-0.75,0.93-1.555,1.277-2.387c0.347-0.847,0.611-1.721,0.791-2.596
			c0.18-0.902,0.264-1.82,0.264-2.721C193.261,17.325,193.177,16.407,192.997,15.52z"/>
	</g>
</g>
<g>
	<g>
		<path d="M405.036,143.16c-15.484,0-30.531,3.086-44.367,9.007c-8.749-27.779-28.28-50.806-53.655-64.194l16.995-25.651
			c4.234-6.391,2.486-15.005-3.905-19.237c-6.391-4.238-15.005-2.487-19.238,3.905l-20.604,31.096
			c-7.81-1.771-15.924-2.737-24.263-2.737c-8.344,0-16.462,0.967-24.277,2.741l-20.587-31.095
			c-4.231-6.392-12.844-8.144-19.235-3.91c-6.392,4.232-8.144,12.845-3.91,19.235l16.988,25.659
			c-25.372,13.389-44.899,36.414-53.646,64.188c-13.836-5.921-28.884-9.007-44.367-9.007C47.984,143.16,0,188.051,0,243.229
			c0,22.046,7.511,42.954,21.72,60.463c11.135,13.722,26.099,24.631,42.929,31.449c-0.051,1.183-0.078,2.36-0.078,3.533
			c0,46.717,38.531,85.158,87.384,88.952c19.982,30.005,52.583,50.913,90.164,55.087v11.053c0,7.665,6.214,13.88,13.88,13.88
			s13.88-6.216,13.88-13.88v-11.053c37.58-4.174,70.182-25.082,90.164-55.087c48.853-3.795,87.384-42.237,87.384-88.952
			c0-1.173-0.026-2.35-0.078-3.533c16.83-6.818,31.794-17.727,42.929-31.449c14.209-17.507,21.72-38.417,21.72-60.463
			C512,188.051,464.016,143.16,405.036,143.16z M174.134,181.605c0.021-0.471,0.04-0.938,0.069-1.413
			c0.026-0.439,0.067-0.872,0.1-1.309c0.105-1.335,0.235-2.69,0.408-4.084c5.069-40.359,39.577-71.691,81.289-71.691
			s76.22,31.331,81.286,71.691c0.174,1.395,0.304,2.748,0.408,4.084c0.032,0.436,0.074,0.87,0.1,1.309
			c0.029,0.475,0.049,0.942,0.069,1.413c0.047,1.146,0.087,2.296,0.087,3.453c0,1.509-0.049,3.009-0.129,4.504
			c-0.062,1.113-0.162,2.219-0.269,3.324c-0.031,0.322-0.05,0.647-0.083,0.967c-2.025,18.564-10.396,35.945-23.566,49.141
			c-0.096,0.096-0.187,0.194-0.285,0.289c-0.705,0.698-1.438,1.371-2.169,2.046c-0.308,0.282-0.615,0.564-0.927,0.841
			c-0.117-0.057-0.235-0.108-0.35-0.165c-0.737-0.355-1.48-0.7-2.224-1.041c-0.272-0.124-0.543-0.253-0.816-0.375
			c-0.977-0.44-1.961-0.868-2.951-1.283c-0.089-0.036-0.178-0.072-0.266-0.108c-1.005-0.419-2.017-0.825-3.034-1.217
			c-0.032-0.012-0.064-0.025-0.094-0.036c-9.669-3.727-19.914-6.281-30.562-7.493c-0.061-0.007-0.121-0.014-0.182-0.021
			c-1.038-0.117-2.081-0.221-3.126-0.311c-0.161-0.014-0.321-0.029-0.482-0.043c-0.943-0.079-1.888-0.144-2.836-0.203
			c-0.233-0.014-0.466-0.032-0.7-0.044c-0.895-0.05-1.795-0.086-2.696-0.115c-0.261-0.008-0.522-0.024-0.784-0.029
			c-1.137-0.031-2.278-0.049-3.422-0.049c-1.144,0-2.285,0.018-3.422,0.049c-0.261,0.007-0.523,0.021-0.784,0.029
			c-0.901,0.029-1.8,0.065-2.696,0.115c-0.233,0.013-0.466,0.029-0.7,0.044c-0.948,0.058-1.893,0.124-2.836,0.203
			c-0.161,0.012-0.321,0.029-0.482,0.043c-1.045,0.09-2.088,0.194-3.126,0.311c-0.061,0.007-0.121,0.014-0.182,0.021
			c-10.648,1.213-20.893,3.767-30.562,7.493c-0.032,0.013-0.064,0.025-0.094,0.036c-1.017,0.393-2.029,0.798-3.034,1.217
			c-0.089,0.036-0.178,0.072-0.266,0.108c-0.99,0.415-1.974,0.841-2.951,1.283c-0.273,0.122-0.544,0.25-0.816,0.375
			c-0.744,0.343-1.488,0.686-2.224,1.041c-0.117,0.057-0.235,0.108-0.35,0.165c-0.312-0.278-0.62-0.559-0.927-0.841
			c-0.732-0.675-1.464-1.348-2.17-2.046c-0.097-0.096-0.189-0.194-0.285-0.289c-13.17-13.196-21.541-30.577-23.566-49.141
			c-0.033-0.321-0.053-0.645-0.083-0.967c-0.107-1.105-0.207-2.211-0.269-3.324c-0.081-1.494-0.129-2.994-0.129-4.504
			C174.046,183.9,174.086,182.751,174.134,181.605z M131.164,362.95c0.011,0.294,0.021,0.589,0.033,0.884
			c0.473,11.362,2.471,22.336,5.795,32.724c-26.015-8.564-44.659-31.286-44.659-57.887c0-3.426,0.336-6.943,0.997-10.457
			c1.328-7.057-2.948-13.964-9.856-15.921c-33.324-9.443-55.713-37.198-55.713-69.065c0-39.871,35.531-72.308,79.204-72.308
			c13.983,0,27.46,3.302,39.423,9.608c-0.067,1.53-0.1,3.041-0.1,4.532c0,1.556,0.046,3.105,0.112,4.653
			c0.019,0.455,0.037,0.911,0.062,1.366c0.072,1.306,0.164,2.609,0.283,3.907c0.081,0.908,0.185,1.811,0.287,2.714
			c0.032,0.275,0.065,0.55,0.1,0.824c2.895,23.86,13.422,45.837,30.197,63.003c-25.061,20.246-41.153,49.094-45.222,80.979
			c-0.017,0.124-0.032,0.248-0.047,0.372c-0.108,0.865-0.208,1.731-0.298,2.598c-0.033,0.316-0.062,0.632-0.093,0.948
			c-0.069,0.729-0.137,1.457-0.194,2.189c-0.037,0.473-0.068,0.949-0.1,1.426c-0.04,0.605-0.083,1.209-0.115,1.816
			c-0.035,0.655-0.058,1.312-0.082,1.968c-0.017,0.453-0.04,0.902-0.051,1.356c-0.031,1.126-0.047,2.253-0.047,3.385
			C131.079,360.034,131.114,361.494,131.164,362.95z M353.052,362.935c-0.018,0.393-0.036,0.786-0.058,1.178
			c-0.078,1.363-0.178,2.719-0.311,4.067c-0.043,0.434-0.101,0.868-0.15,1.302c-0.106,0.933-0.224,1.863-0.355,2.787
			c-0.087,0.609-0.174,1.22-0.272,1.827c-0.174,1.072-0.365,2.138-0.572,3.198c-0.153,0.777-0.322,1.549-0.494,2.322
			c-0.135,0.608-0.273,1.213-0.421,1.816c-0.176,0.726-0.353,1.453-0.545,2.175c-0.283,1.062-0.582,2.117-0.901,3.163
			c-0.204,0.672-0.426,1.338-0.644,2.006c-0.215,0.656-0.436,1.309-0.665,1.959c-0.212,0.604-0.422,1.206-0.645,1.804
			c-0.427,1.141-0.872,2.272-1.339,3.391c-0.174,0.418-0.36,0.83-0.54,1.245c-0.415,0.954-0.841,1.902-1.285,2.839
			c-0.151,0.319-0.298,0.641-0.454,0.959c-0.619,1.271-1.26,2.53-1.934,3.77c-0.057,0.104-0.117,0.207-0.172,0.311
			c-16.508,30.168-48.549,50.673-85.294,50.673s-68.786-20.505-85.294-50.67c-0.057-0.104-0.117-0.207-0.172-0.311
			c-0.673-1.24-1.314-2.498-1.934-3.77c-0.154-0.318-0.303-0.638-0.454-0.959c-0.444-0.937-0.87-1.885-1.285-2.839
			c-0.083-0.192-0.168-0.383-0.25-0.576h108.59c7.666,0,13.88-6.216,13.88-13.88c0-7.665-6.214-13.88-13.88-13.88H159.394
			c-0.024-0.221-0.054-0.44-0.076-0.661c-0.133-1.348-0.233-2.704-0.311-4.067c-0.022-0.393-0.04-0.786-0.058-1.178
			c-0.065-1.451-0.111-2.905-0.111-4.371c0-1.509,0.046-3.008,0.114-4.5c0.014-0.291,0.025-0.583,0.042-0.873
			c0.082-1.502,0.192-2.995,0.341-4.478c0.007-0.074,0.017-0.147,0.025-0.221c0.507-4.901,1.38-9.693,2.59-14.352h113.251
			c7.666,0,13.88-6.216,13.88-13.88c0-7.665-6.214-13.88-13.88-13.88H174.104c9.636-15.069,23.294-27.325,39.472-35.209
			c0.254-0.124,0.509-0.246,0.763-0.366c1.122-0.534,2.254-1.047,3.399-1.539c0.21-0.089,0.415-0.186,0.626-0.275
			c1.192-0.503,2.4-0.973,3.616-1.428c0.519-0.194,1.041-0.38,1.563-0.566c0.787-0.28,1.581-0.547,2.376-0.806
			c0.736-0.24,1.471-0.475,2.213-0.695c0.922-0.276,1.849-0.543,2.783-0.793c0.661-0.176,1.324-0.341,1.989-0.504
			c0.707-0.173,1.416-0.334,2.128-0.491c0.795-0.176,1.592-0.347,2.392-0.503c1.001-0.194,2.006-0.376,3.016-0.54
			c0.586-0.094,1.172-0.18,1.759-0.264c0.987-0.142,1.979-0.268,2.975-0.379c0.382-0.043,0.763-0.096,1.145-0.133
			c1.363-0.136,2.736-0.236,4.114-0.314c0.396-0.024,0.793-0.042,1.19-0.06c1.452-0.065,2.909-0.111,4.378-0.111
			s2.925,0.046,4.378,0.111c0.397,0.018,0.794,0.036,1.19,0.06c1.378,0.078,2.751,0.178,4.114,0.314
			c0.383,0.037,0.763,0.09,1.145,0.133c0.997,0.111,1.988,0.237,2.975,0.379c0.587,0.085,1.174,0.169,1.759,0.264
			c1.01,0.164,2.015,0.346,3.016,0.54c0.799,0.155,1.596,0.326,2.392,0.503c0.712,0.157,1.421,0.319,2.128,0.491
			c0.665,0.162,1.328,0.328,1.989,0.504c0.934,0.25,1.86,0.516,2.783,0.793c0.741,0.222,1.477,0.457,2.213,0.695
			c0.797,0.26,1.589,0.526,2.376,0.806c0.522,0.185,1.044,0.372,1.563,0.566c1.216,0.457,2.423,0.926,3.616,1.428
			c0.21,0.087,0.416,0.185,0.626,0.275c1.144,0.491,2.278,1.005,3.399,1.539c0.255,0.121,0.509,0.243,0.763,0.366
			c29.506,14.381,50.693,43.267,54.217,77.322c0.007,0.074,0.017,0.146,0.025,0.221c0.15,1.482,0.26,2.976,0.341,4.478
			c0.015,0.29,0.028,0.582,0.042,0.873c0.068,1.492,0.114,2.991,0.114,4.5C353.163,360.03,353.117,361.485,353.052,362.935z
			 M428.528,312.294c-6.91,1.957-11.185,8.864-9.857,15.921c0.661,3.515,0.997,7.032,0.997,10.457
			c0,26.6-18.646,49.321-44.657,57.885c3.324-10.388,5.322-21.362,5.795-32.724c0.013-0.294,0.024-0.59,0.033-0.884
			c0.05-1.456,0.085-2.918,0.085-4.385c0-1.133-0.017-2.26-0.047-3.385c-0.013-0.454-0.035-0.904-0.051-1.356
			c-0.025-0.658-0.047-1.314-0.082-1.968c-0.032-0.607-0.075-1.21-0.115-1.816c-0.032-0.476-0.063-0.952-0.1-1.426
			c-0.057-0.732-0.125-1.46-0.194-2.189c-0.031-0.316-0.06-0.633-0.093-0.948c-0.09-0.867-0.19-1.735-0.298-2.598
			c-0.015-0.124-0.031-0.247-0.047-0.372c-4.068-31.886-20.161-60.732-45.222-80.979c16.776-17.166,27.301-39.143,30.197-63.003
			c0.035-0.275,0.068-0.55,0.1-0.825c0.103-0.902,0.207-1.806,0.287-2.714c0.119-1.299,0.21-2.603,0.283-3.907
			c0.025-0.455,0.043-0.911,0.063-1.366c0.067-1.548,0.112-3.097,0.112-4.653c0-1.489-0.033-3.002-0.1-4.532
			c11.963-6.306,25.441-9.608,39.423-9.608c43.673,0,79.204,32.437,79.204,72.308C484.239,275.096,461.85,302.851,428.528,312.294z"
			/>
	</g>
</g>
<g>
	<g>
		<path d="M330.454,317.544c-0.18-0.874-0.444-1.749-0.791-2.596c-0.347-0.833-0.777-1.638-1.277-2.387
			c-0.514-0.763-1.096-1.473-1.735-2.111c-0.638-0.652-1.346-1.221-2.11-1.735c-0.75-0.498-1.555-0.93-2.387-1.277
			c-0.847-0.347-1.707-0.609-2.596-0.79c-1.791-0.362-3.637-0.362-5.427,0c-0.888,0.18-1.763,0.443-2.596,0.79
			s-1.652,0.779-2.401,1.277c-0.763,0.514-1.471,1.083-2.11,1.735c-0.638,0.639-1.221,1.348-1.721,2.111
			c-0.5,0.75-0.93,1.555-1.277,2.387c-0.347,0.847-0.611,1.721-0.791,2.596c-0.18,0.902-0.278,1.818-0.278,2.721
			s0.097,1.818,0.278,2.707c0.18,0.888,0.444,1.761,0.791,2.596c0.347,0.845,0.777,1.65,1.277,2.4
			c0.5,0.763,1.083,1.473,1.721,2.111s1.36,1.221,2.11,1.72c0.763,0.5,1.568,0.93,2.401,1.277c0.833,0.347,1.707,0.611,2.596,0.791
			c0.888,0.18,1.804,0.278,2.707,0.278c0.916,0,1.818-0.097,2.721-0.278c0.888-0.18,1.749-0.444,2.596-0.791
			c0.833-0.347,1.638-0.777,2.387-1.277c0.763-0.498,1.471-1.081,2.11-1.72c0.639-0.638,1.221-1.348,1.735-2.111
			c0.5-0.75,0.93-1.555,1.277-2.4c0.347-0.834,0.611-1.707,0.791-2.596c0.18-0.89,0.264-1.804,0.264-2.707
			S330.635,318.446,330.454,317.544z"/>
	</g>
</g>
<g>
	<g>
		<path d="M326.665,372.911c-0.652-0.639-1.36-1.221-2.11-1.735c-0.763-0.498-1.568-0.93-2.401-1.277
			c-0.833-0.347-1.707-0.609-2.596-0.79c-1.791-0.362-3.637-0.362-5.427,0c-0.888,0.18-1.763,0.443-2.596,0.79
			c-0.847,0.347-1.652,0.779-2.401,1.277c-0.763,0.514-1.471,1.097-2.11,1.735c-2.582,2.582-4.067,6.15-4.067,9.813
			c0,0.902,0.097,1.818,0.278,2.707c0.18,0.888,0.444,1.763,0.791,2.596c0.347,0.845,0.777,1.65,1.277,2.4
			c0.5,0.763,1.083,1.473,1.721,2.111c2.582,2.58,6.163,4.067,9.813,4.067c3.664,0,7.232-1.485,9.813-4.067
			c0.638-0.638,1.221-1.348,1.735-2.111c0.5-0.75,0.93-1.555,1.277-2.4c0.347-0.834,0.611-1.707,0.791-2.596
			c0.18-0.89,0.264-1.804,0.264-2.707C330.718,379.06,329.247,375.493,326.665,372.911z"/>
	</g>
</g>
</svg>

